<svg width="82" height="18" viewBox="0 0 82 18" fill="none" xmlns="http://www.w3.org/2000/svg">
<path d="M24.53 13.078C23.8453 13.078 23.204 13.0607 22.606 13.026C22.0167 13 21.501 12.961 21.059 12.909V12.116H24.192C24.5647 12.116 24.8983 12.077 25.193 11.999C25.4877 11.921 25.7173 11.778 25.882 11.57C26.0553 11.3533 26.142 11.05 26.142 10.66V10.023C26.142 9.685 26.0553 9.41633 25.882 9.217C25.7173 9.01767 25.5093 8.87467 25.258 8.788C25.0067 8.70133 24.7467 8.65367 24.478 8.645L22.021 8.554V7.8L24.439 7.696C24.907 7.67867 25.284 7.579 25.57 7.397C25.8647 7.20633 26.012 6.89 26.012 6.448V5.811C26.012 5.33433 25.8517 4.97033 25.531 4.719C25.219 4.459 24.7467 4.329 24.114 4.329H21.384V3.536C21.7827 3.484 22.2377 3.44067 22.749 3.406C23.269 3.37133 23.8497 3.354 24.491 3.354C25.063 3.36267 25.5353 3.46233 25.908 3.653C26.2893 3.835 26.571 4.095 26.753 4.433C26.935 4.76233 27.026 5.15233 27.026 5.603V6.422C27.026 6.71667 26.9783 6.97233 26.883 7.189C26.7963 7.397 26.6793 7.57033 26.532 7.709C26.3933 7.84767 26.2417 7.956 26.077 8.034C25.921 8.10333 25.778 8.151 25.648 8.177C25.7953 8.21167 25.9557 8.27667 26.129 8.372C26.3023 8.45867 26.467 8.58 26.623 8.736C26.7877 8.892 26.922 9.087 27.026 9.321C27.13 9.555 27.182 9.83233 27.182 10.153V10.816C27.182 11.5527 26.948 12.116 26.48 12.506C26.0207 12.8873 25.3707 13.078 24.53 13.078ZM32.4985 13.065C31.9092 13.065 31.3242 13.052 30.7435 13.026C30.1628 13 29.6428 12.9653 29.1835 12.922V12.129H32.5115C32.9015 12.129 33.2395 12.0683 33.5255 11.947C33.8115 11.817 34.0325 11.635 34.1885 11.401C34.3532 11.1583 34.4355 10.8767 34.4355 10.556V9.516C34.4355 9.06533 34.3055 8.71433 34.0455 8.463C33.7855 8.203 33.3868 8.073 32.8495 8.073H31.8225C31.4325 8.073 31.1205 8.15967 30.8865 8.333C30.6525 8.50633 30.5008 8.78367 30.4315 9.165H29.4565L29.7295 3.432H35.1505V4.368H30.6265L30.4575 7.878C30.5615 7.70467 30.7435 7.54867 31.0035 7.41C31.2722 7.26267 31.6102 7.189 32.0175 7.189H33.1615C33.6642 7.189 34.0845 7.28433 34.4225 7.475C34.7605 7.657 35.0205 7.91267 35.2025 8.242C35.3845 8.56267 35.4755 8.92667 35.4755 9.334V10.751C35.4755 11.271 35.3498 11.7043 35.0985 12.051C34.8472 12.389 34.5005 12.6447 34.0585 12.818C33.6165 12.9827 33.0965 13.065 32.4985 13.065ZM39.855 13.039C39.4563 13.039 39.0923 12.9697 38.763 12.831C38.4336 12.6837 38.1563 12.4323 37.931 12.077C37.7056 11.7217 37.528 11.232 37.398 10.608C37.2766 9.984 37.216 9.18667 37.216 8.216C37.216 7.358 37.2896 6.62133 37.437 6.006C37.593 5.39067 37.8183 4.888 38.113 4.498C38.4076 4.108 38.763 3.822 39.179 3.64C39.595 3.44933 40.0716 3.354 40.609 3.354C40.973 3.354 41.376 3.37133 41.818 3.406C42.26 3.432 42.65 3.46233 42.988 3.497V4.29H40.622C39.8853 4.29 39.3046 4.576 38.88 5.148C38.464 5.71133 38.256 6.57367 38.256 7.735C38.516 7.70033 38.802 7.67433 39.114 7.657C39.4346 7.631 39.751 7.618 40.063 7.618C40.375 7.60933 40.6523 7.605 40.895 7.605C41.467 7.605 41.9523 7.67 42.351 7.8C42.7496 7.93 43.0486 8.14233 43.248 8.437C43.456 8.73167 43.56 9.12167 43.56 9.607V10.946C43.56 11.4573 43.4603 11.8647 43.261 12.168C43.0616 12.4713 42.793 12.6923 42.455 12.831C42.117 12.9697 41.7443 13.039 41.337 13.039H39.855ZM40.024 12.103H41.142C41.402 12.103 41.636 12.0683 41.844 11.999C42.052 11.921 42.2166 11.791 42.338 11.609C42.468 11.4183 42.533 11.1453 42.533 10.79V9.776C42.533 9.412 42.4593 9.139 42.312 8.957C42.1646 8.775 41.9523 8.65367 41.675 8.593C41.3976 8.52367 41.0596 8.489 40.661 8.489H38.256C38.256 9.20833 38.295 9.80633 38.373 10.283C38.451 10.751 38.5636 11.1193 38.711 11.388C38.867 11.648 39.0533 11.8343 39.27 11.947C39.4953 12.051 39.7466 12.103 40.024 12.103ZM48.8975 13V3.432H49.9375V7.761H51.6145L54.2405 3.432H55.3325L52.4335 8.216L55.3715 13H54.2665L51.6145 8.697H49.9375V13H48.8975ZM56.7556 13V6.058H57.5616L57.7826 6.825C58.1292 6.58233 58.5149 6.37433 58.9396 6.201C59.3729 6.02767 59.8539 5.941 60.3826 5.941C60.8159 5.941 61.1842 6.04067 61.4876 6.24C61.7996 6.43067 62.0336 6.67333 62.1896 6.968C62.4062 6.812 62.6662 6.656 62.9696 6.5C63.2816 6.344 63.6109 6.214 63.9576 6.11C64.3129 5.99733 64.6552 5.941 64.9846 5.941C65.4872 5.941 65.8989 6.04933 66.2196 6.266C66.5402 6.474 66.7742 6.76 66.9216 7.124C67.0776 7.47933 67.1556 7.878 67.1556 8.32V13H66.1286V8.398C66.1286 8.10333 66.0679 7.84333 65.9466 7.618C65.8339 7.384 65.6692 7.202 65.4526 7.072C65.2359 6.942 64.9716 6.877 64.6596 6.877C64.2696 6.877 63.8709 6.95067 63.4636 7.098C63.0562 7.24533 62.6792 7.423 62.3326 7.631C62.3759 7.761 62.4062 7.891 62.4236 8.021C62.4496 8.14233 62.4626 8.27233 62.4626 8.411V13H61.4356V8.398C61.4356 8.10333 61.3749 7.84333 61.2536 7.618C61.1409 7.384 60.9762 7.202 60.7596 7.072C60.5516 6.942 60.2916 6.877 59.9796 6.877C59.6936 6.877 59.4249 6.90733 59.1736 6.968C58.9309 7.02 58.6969 7.098 58.4716 7.202C58.2549 7.29733 58.0252 7.41433 57.7826 7.553V13H56.7556ZM68.3807 13.936L72.0337 2.99H73.0347L69.3817 13.936H68.3807ZM74.3132 13V3.081H75.3402V6.825C75.6609 6.591 76.0422 6.38733 76.4842 6.214C76.9349 6.032 77.4029 5.941 77.8882 5.941C78.3735 5.941 78.7722 6.045 79.0842 6.253C79.4049 6.461 79.6389 6.74267 79.7862 7.098C79.9422 7.45333 80.0202 7.84767 80.0202 8.281V13H78.9932V8.385C78.9932 8.09033 78.9325 7.83033 78.8112 7.605C78.6985 7.37967 78.5339 7.202 78.3172 7.072C78.1005 6.942 77.8405 6.877 77.5372 6.877C77.2512 6.877 76.9869 6.90733 76.7442 6.968C76.5015 7.02 76.2675 7.098 76.0422 7.202C75.8169 7.29733 75.5829 7.41433 75.3402 7.553V13H74.3132Z" fill="white"/>
<path d="M3.16668 4.33333V13.6667H13.8333V4.33333H3.16668ZM2.50001 3H14.5C14.6768 3 14.8464 3.07024 14.9714 3.19526C15.0964 3.32029 15.1667 3.48986 15.1667 3.66667V14.3333C15.1667 14.5101 15.0964 14.6797 14.9714 14.8047C14.8464 14.9298 14.6768 15 14.5 15H2.50001C2.3232 15 2.15363 14.9298 2.02861 14.8047C1.90358 14.6797 1.83334 14.5101 1.83334 14.3333V3.66667C1.83334 3.48986 1.90358 3.32029 2.02861 3.19526C2.15363 3.07024 2.3232 3 2.50001 3ZM10.362 7.52867L9.16668 6.33333H12.5V9.66667L11.3047 8.47133L8.72868 11.0473L7.31468 9.63333L5.42868 11.5187L4.48601 10.576L7.31468 7.74733L8.72868 9.162L10.362 7.52867Z" fill="white"/>
</svg>
