<svg width="63" height="18" viewBox="0 0 63 18" fill="none" xmlns="http://www.w3.org/2000/svg">
<path d="M8.50001 2.33337C12.182 2.33337 15.1667 5.31804 15.1667 9.00004C15.1667 12.682 12.182 15.6667 8.50001 15.6667C4.81801 15.6667 1.83334 12.682 1.83334 9.00004C1.83334 5.31804 4.81801 2.33337 8.50001 2.33337ZM8.50001 3.66671C7.08552 3.66671 5.72897 4.22861 4.72877 5.2288C3.72858 6.229 3.16668 7.58555 3.16668 9.00004C3.16668 10.4145 3.72858 11.7711 4.72877 12.7713C5.72897 13.7715 7.08552 14.3334 8.50001 14.3334C9.9145 14.3334 11.2711 13.7715 12.2712 12.7713C13.2714 11.7711 13.8333 10.4145 13.8333 9.00004C13.8333 7.58555 13.2714 6.229 12.2712 5.2288C11.2711 4.22861 9.9145 3.66671 8.50001 3.66671ZM11.0553 5.89137C11.1318 5.83774 11.2248 5.81281 11.3178 5.82098C11.4109 5.82915 11.4981 5.86989 11.564 5.93604C11.6298 6.00187 11.6702 6.0889 11.6779 6.18168C11.6856 6.27445 11.6601 6.36694 11.606 6.44271C10.1527 8.47337 9.35268 9.56137 9.20734 9.70737C9.01962 9.89472 8.76523 9.99994 8.50001 9.99994C8.23479 9.99994 7.9804 9.89472 7.79268 9.70737C7.60533 9.51965 7.50011 9.26526 7.50011 9.00004C7.50011 8.73482 7.60533 8.48044 7.79268 8.29271C8.04201 8.04404 9.12934 7.24337 11.0553 5.89137ZM12.1667 8.33337C12.3435 8.33337 12.5131 8.40361 12.6381 8.52864C12.7631 8.65366 12.8333 8.82323 12.8333 9.00004C12.8333 9.17685 12.7631 9.34642 12.6381 9.47145C12.5131 9.59647 12.3435 9.66671 12.1667 9.66671C11.9899 9.66671 11.8203 9.59647 11.6953 9.47145C11.5702 9.34642 11.5 9.17685 11.5 9.00004C11.5 8.82323 11.5702 8.65366 11.6953 8.52864C11.8203 8.40361 11.9899 8.33337 12.1667 8.33337ZM4.83334 8.33337C5.01015 8.33337 5.17972 8.40361 5.30475 8.52864C5.42977 8.65366 5.50001 8.82323 5.50001 9.00004C5.50001 9.17685 5.42977 9.34642 5.30475 9.47145C5.17972 9.59647 5.01015 9.66671 4.83334 9.66671C4.65653 9.66671 4.48696 9.59647 4.36194 9.47145C4.23691 9.34642 4.16668 9.17685 4.16668 9.00004C4.16668 8.82323 4.23691 8.65366 4.36194 8.52864C4.48696 8.40361 4.65653 8.33337 4.83334 8.33337ZM6.37868 5.93604C6.50368 6.06122 6.57384 6.23094 6.57371 6.40785C6.57359 6.58475 6.50319 6.75437 6.37801 6.87937C6.25283 7.00438 6.08312 7.07454 5.90621 7.07441C5.7293 7.07429 5.55968 7.00389 5.43468 6.87871C5.37278 6.81672 5.3237 6.74316 5.29023 6.6622C5.25677 6.58125 5.23958 6.4945 5.23964 6.4069C5.2397 6.31931 5.25702 6.23258 5.2906 6.15167C5.32417 6.07077 5.37336 5.99727 5.43534 5.93537C5.56053 5.81037 5.73024 5.74021 5.90715 5.74034C5.99475 5.7404 6.08147 5.75771 6.16238 5.79129C6.24328 5.82487 6.31678 5.87406 6.37868 5.93604ZM8.50001 4.66671C8.67682 4.66671 8.84639 4.73695 8.97141 4.86197C9.09644 4.98699 9.16668 5.15656 9.16668 5.33337C9.16668 5.51019 9.09644 5.67975 8.97141 5.80478C8.84639 5.9298 8.67682 6.00004 8.50001 6.00004C8.3232 6.00004 8.15363 5.9298 8.02861 5.80478C7.90358 5.67975 7.83334 5.51019 7.83334 5.33337C7.83334 5.15656 7.90358 4.98699 8.02861 4.86197C8.15363 4.73695 8.3232 4.66671 8.50001 4.66671Z" fill="white"/>
<path d="M24.53 13.078C23.8453 13.078 23.204 13.0607 22.606 13.026C22.0167 13 21.501 12.961 21.059 12.909V12.116H24.192C24.5647 12.116 24.8983 12.077 25.193 11.999C25.4877 11.921 25.7173 11.778 25.882 11.57C26.0553 11.3533 26.142 11.05 26.142 10.66V10.023C26.142 9.685 26.0553 9.41633 25.882 9.217C25.7173 9.01767 25.5093 8.87467 25.258 8.788C25.0067 8.70133 24.7467 8.65367 24.478 8.645L22.021 8.554V7.8L24.439 7.696C24.907 7.67867 25.284 7.579 25.57 7.397C25.8647 7.20633 26.012 6.89 26.012 6.448V5.811C26.012 5.33433 25.8517 4.97033 25.531 4.719C25.219 4.459 24.7467 4.329 24.114 4.329H21.384V3.536C21.7827 3.484 22.2377 3.44067 22.749 3.406C23.269 3.37133 23.8497 3.354 24.491 3.354C25.063 3.36267 25.5353 3.46233 25.908 3.653C26.2893 3.835 26.571 4.095 26.753 4.433C26.935 4.76233 27.026 5.15233 27.026 5.603V6.422C27.026 6.71667 26.9783 6.97233 26.883 7.189C26.7963 7.397 26.6793 7.57033 26.532 7.709C26.3933 7.84767 26.2417 7.956 26.077 8.034C25.921 8.10333 25.778 8.151 25.648 8.177C25.7953 8.21167 25.9557 8.27667 26.129 8.372C26.3023 8.45867 26.467 8.58 26.623 8.736C26.7877 8.892 26.922 9.087 27.026 9.321C27.13 9.555 27.182 9.83233 27.182 10.153V10.816C27.182 11.5527 26.948 12.116 26.48 12.506C26.0207 12.8873 25.3707 13.078 24.53 13.078ZM29.1185 13.013C28.9798 13.013 28.9105 12.9437 28.9105 12.805V11.765C28.9105 11.6263 28.9798 11.557 29.1185 11.557H29.6905C29.8292 11.557 29.8985 11.6263 29.8985 11.765V12.805C29.8985 12.8743 29.8768 12.9263 29.8335 12.961C29.7988 12.9957 29.7512 13.013 29.6905 13.013H29.1185ZM32.605 13L35.946 4.472H31.136V3.432H36.921L37.259 3.965L33.762 13H32.605ZM44.9875 13.078C44.7969 13.078 44.5672 13.0693 44.2985 13.052C44.0385 13.0433 43.7699 13.026 43.4925 13C43.2152 12.9827 42.9509 12.961 42.6995 12.935C42.4569 12.909 42.2532 12.8787 42.0885 12.844V12.051C42.3052 12.0683 42.5695 12.0857 42.8815 12.103C43.1935 12.1203 43.5272 12.1333 43.8825 12.142C44.2465 12.1507 44.6019 12.155 44.9485 12.155C45.3385 12.155 45.6895 12.116 46.0015 12.038C46.3135 11.96 46.5605 11.817 46.7425 11.609C46.9332 11.401 47.0285 11.102 47.0285 10.712V10.062C47.0285 9.62 46.9159 9.28633 46.6905 9.061C46.4652 8.827 46.1012 8.71 45.5985 8.71H44.5715C43.7829 8.71 43.1632 8.53667 42.7125 8.19C42.2705 7.84333 42.0495 7.24533 42.0495 6.396V5.85C42.0495 4.94867 42.2922 4.30733 42.7775 3.926C43.2629 3.54467 43.9475 3.354 44.8315 3.354C45.1089 3.354 45.4209 3.37133 45.7675 3.406C46.1142 3.432 46.4479 3.46667 46.7685 3.51C47.0979 3.54467 47.3709 3.58367 47.5875 3.627V4.42C47.2062 4.38533 46.7729 4.355 46.2875 4.329C45.8109 4.303 45.3602 4.29 44.9355 4.29C44.5455 4.29 44.2075 4.33767 43.9215 4.433C43.6355 4.51967 43.4145 4.68 43.2585 4.914C43.1112 5.13933 43.0375 5.46433 43.0375 5.889V6.331C43.0375 6.85967 43.1762 7.22367 43.4535 7.423C43.7309 7.62233 44.1165 7.722 44.6105 7.722H45.7155C46.2442 7.722 46.6775 7.81733 47.0155 8.008C47.3535 8.19867 47.6049 8.463 47.7695 8.801C47.9342 9.13033 48.0165 9.51167 48.0165 9.945V10.686C48.0165 11.3273 47.8779 11.8213 47.6005 12.168C47.3319 12.5147 46.9679 12.753 46.5085 12.883C46.0579 13.013 45.5509 13.078 44.9875 13.078ZM52.4252 13.078C51.6972 13.078 51.1208 12.9697 50.6962 12.753C50.2802 12.5363 49.9812 12.168 49.7992 11.648C49.6172 11.128 49.5262 10.4173 49.5262 9.516C49.5262 8.59733 49.6172 7.88233 49.7992 7.371C49.9898 6.851 50.2975 6.487 50.7222 6.279C51.1468 6.071 51.7188 5.967 52.4382 5.967C53.0535 5.967 53.5518 6.03633 53.9332 6.175C54.3232 6.31367 54.6092 6.552 54.7912 6.89C54.9818 7.21933 55.0772 7.67867 55.0772 8.268C55.0772 8.67533 54.9948 9.00467 54.8302 9.256C54.6742 9.49867 54.4445 9.67633 54.1412 9.789C53.8465 9.893 53.4955 9.945 53.0882 9.945H50.5532C50.5618 10.5083 50.6225 10.9633 50.7352 11.31C50.8478 11.648 51.0515 11.895 51.3462 12.051C51.6495 12.1983 52.0915 12.272 52.6722 12.272H54.9082V12.896C54.5095 12.948 54.1195 12.9913 53.7382 13.026C53.3568 13.0607 52.9192 13.078 52.4252 13.078ZM50.5402 9.269H53.0102C53.4002 9.269 53.6862 9.19967 53.8682 9.061C54.0588 8.91367 54.1542 8.65367 54.1542 8.281C54.1542 7.88233 54.0935 7.57467 53.9722 7.358C53.8595 7.13267 53.6775 6.97667 53.4262 6.89C53.1835 6.79467 52.8542 6.747 52.4382 6.747C51.9528 6.747 51.5715 6.82067 51.2942 6.968C51.0168 7.10667 50.8218 7.358 50.7092 7.722C50.5965 8.086 50.5402 8.60167 50.5402 9.269ZM59.3284 13.078C58.9384 13.078 58.5744 13.026 58.2364 12.922C57.8984 12.818 57.6037 12.636 57.3524 12.376C57.101 12.116 56.906 11.7563 56.7674 11.297C56.6287 10.8377 56.5594 10.2527 56.5594 9.542C56.5594 8.82267 56.6244 8.23333 56.7544 7.774C56.8844 7.306 57.0707 6.942 57.3134 6.682C57.556 6.422 57.8507 6.24 58.1974 6.136C58.544 6.032 58.9297 5.98 59.3544 5.98C59.701 5.98 60.078 5.99733 60.4854 6.032C60.8927 6.058 61.2827 6.10133 61.6554 6.162V6.773H59.6274C59.1854 6.773 58.8127 6.84667 58.5094 6.994C58.206 7.14133 57.9764 7.41867 57.8204 7.826C57.6644 8.22467 57.5864 8.80533 57.5864 9.568C57.5864 10.3047 57.6687 10.868 57.8334 11.258C57.998 11.648 58.232 11.9167 58.5354 12.064C58.8387 12.2027 59.207 12.272 59.6404 12.272H61.7594V12.87C61.56 12.9047 61.326 12.9393 61.0574 12.974C60.7974 13.0087 60.52 13.0347 60.2254 13.052C59.9307 13.0693 59.6317 13.078 59.3284 13.078Z" fill="white"/>
</svg>
