<svg width="66" height="18" viewBox="0 0 66 18" fill="none" xmlns="http://www.w3.org/2000/svg">
<path d="M23.529 13.052C23.321 13.052 23.1 13.0347 22.866 13C22.632 12.9567 22.411 12.8743 22.203 12.753C21.995 12.6317 21.826 12.4497 21.696 12.207C21.566 11.9557 21.501 11.6177 21.501 11.193V5.356C21.501 4.98333 21.553 4.67567 21.657 4.433C21.7697 4.18167 21.917 3.98667 22.099 3.848C22.281 3.70067 22.4847 3.59667 22.71 3.536C22.9353 3.46667 23.1607 3.432 23.386 3.432C23.9233 3.44067 24.4217 3.45367 24.881 3.471C25.3403 3.47967 25.7737 3.49267 26.181 3.51C26.597 3.51867 27 3.53167 27.39 3.549V4.381H23.646C23.308 4.381 23.0393 4.472 22.84 4.654C22.6407 4.836 22.541 5.12633 22.541 5.525V7.787L26.818 7.852V8.645L22.541 8.71V10.959C22.541 11.2797 22.593 11.5223 22.697 11.687C22.8097 11.8517 22.957 11.96 23.139 12.012C23.321 12.064 23.5073 12.09 23.698 12.09H27.39V12.922C26.9913 12.948 26.571 12.9697 26.129 12.987C25.6957 13.0043 25.258 13.0173 24.816 13.026C24.3827 13.0347 23.9537 13.0433 23.529 13.052ZM30.9379 13.013C30.5392 13.013 30.2055 12.9437 29.9369 12.805C29.6682 12.6577 29.4645 12.4237 29.3259 12.103C29.1872 11.7737 29.1179 11.3317 29.1179 10.777V3.081H30.1449V10.647C30.1449 11.063 30.1839 11.3793 30.2619 11.596C30.3399 11.804 30.4525 11.9513 30.5999 12.038C30.7472 12.116 30.9205 12.168 31.1199 12.194L31.8219 12.272V13.013H30.9379ZM35.5912 13.078C34.8632 13.078 34.2868 12.9697 33.8622 12.753C33.4462 12.5363 33.1472 12.168 32.9652 11.648C32.7832 11.128 32.6922 10.4173 32.6922 9.516C32.6922 8.59733 32.7832 7.88233 32.9652 7.371C33.1558 6.851 33.4635 6.487 33.8882 6.279C34.3128 6.071 34.8848 5.967 35.6042 5.967C36.2195 5.967 36.7178 6.03633 37.0992 6.175C37.4892 6.31367 37.7752 6.552 37.9572 6.89C38.1478 7.21933 38.2432 7.67867 38.2432 8.268C38.2432 8.67533 38.1608 9.00467 37.9962 9.256C37.8402 9.49867 37.6105 9.67633 37.3072 9.789C37.0125 9.893 36.6615 9.945 36.2542 9.945H33.7192C33.7278 10.5083 33.7885 10.9633 33.9012 11.31C34.0138 11.648 34.2175 11.895 34.5122 12.051C34.8155 12.1983 35.2575 12.272 35.8382 12.272H38.0742V12.896C37.6755 12.948 37.2855 12.9913 36.9042 13.026C36.5228 13.0607 36.0852 13.078 35.5912 13.078ZM33.7062 9.269H36.1762C36.5662 9.269 36.8522 9.19967 37.0342 9.061C37.2248 8.91367 37.3202 8.65367 37.3202 8.281C37.3202 7.88233 37.2595 7.57467 37.1382 7.358C37.0255 7.13267 36.8435 6.97667 36.5922 6.89C36.3495 6.79467 36.0202 6.747 35.6042 6.747C35.1188 6.747 34.7375 6.82067 34.4602 6.968C34.1828 7.10667 33.9878 7.358 33.8752 7.722C33.7625 8.086 33.7062 8.60167 33.7062 9.269ZM42.4944 13.078C42.1044 13.078 41.7404 13.026 41.4024 12.922C41.0644 12.818 40.7697 12.636 40.5184 12.376C40.267 12.116 40.072 11.7563 39.9334 11.297C39.7947 10.8377 39.7254 10.2527 39.7254 9.542C39.7254 8.82267 39.7904 8.23333 39.9204 7.774C40.0504 7.306 40.2367 6.942 40.4794 6.682C40.722 6.422 41.0167 6.24 41.3634 6.136C41.71 6.032 42.0957 5.98 42.5204 5.98C42.867 5.98 43.244 5.99733 43.6514 6.032C44.0587 6.058 44.4487 6.10133 44.8214 6.162V6.773H42.7934C42.3514 6.773 41.9787 6.84667 41.6754 6.994C41.372 7.14133 41.1424 7.41867 40.9864 7.826C40.8304 8.22467 40.7524 8.80533 40.7524 9.568C40.7524 10.3047 40.8347 10.868 40.9994 11.258C41.164 11.648 41.398 11.9167 41.7014 12.064C42.0047 12.2027 42.373 12.272 42.8064 12.272H44.9254V12.87C44.726 12.9047 44.492 12.9393 44.2234 12.974C43.9634 13.0087 43.686 13.0347 43.3914 13.052C43.0967 13.0693 42.7977 13.078 42.4944 13.078ZM48.6464 13C48.1958 13 47.8231 12.9263 47.5284 12.779C47.2338 12.6317 47.0171 12.3933 46.8784 12.064C46.7398 11.7347 46.6748 11.297 46.6834 10.751L46.7224 6.903H45.6174V6.24L46.7354 6.058L46.9044 4.121H47.6974V6.058H49.6994V6.903H47.6974V10.751C47.6974 11.0543 47.7278 11.297 47.7884 11.479C47.8578 11.661 47.9444 11.7997 48.0484 11.895C48.1611 11.9903 48.2781 12.0597 48.3994 12.103C48.5208 12.1377 48.6378 12.1593 48.7504 12.168L49.5954 12.246V13H48.6464ZM51.1189 13V6.058H51.8989L52.1459 7.267C52.4579 6.89433 52.8045 6.58667 53.1859 6.344C53.5759 6.10133 54.0222 5.98 54.5249 5.98C54.6462 5.98 54.7589 5.98433 54.8629 5.993C54.9755 6.00167 55.0795 6.019 55.1749 6.045V7.098C55.0622 7.08067 54.9409 7.06767 54.8109 7.059C54.6809 7.04167 54.5509 7.033 54.4209 7.033C54.1002 7.033 53.8142 7.072 53.5629 7.15C53.3115 7.228 53.0732 7.345 52.8479 7.501C52.6225 7.657 52.3885 7.84767 52.1459 8.073V13H51.1189ZM56.6323 4.823C56.4936 4.823 56.4243 4.75367 56.4243 4.615V3.601C56.4243 3.46233 56.4936 3.393 56.6323 3.393H57.3603C57.4296 3.393 57.4773 3.41467 57.5033 3.458C57.5379 3.49267 57.5553 3.54033 57.5553 3.601V4.615C57.5553 4.75367 57.4903 4.823 57.3603 4.823H56.6323ZM56.4763 13V6.058H57.5033V13H56.4763ZM62.0071 13.078C61.6171 13.078 61.2531 13.026 60.9151 12.922C60.5771 12.818 60.2824 12.636 60.0311 12.376C59.7797 12.116 59.5847 11.7563 59.4461 11.297C59.3074 10.8377 59.2381 10.2527 59.2381 9.542C59.2381 8.82267 59.3031 8.23333 59.4331 7.774C59.5631 7.306 59.7494 6.942 59.9921 6.682C60.2347 6.422 60.5294 6.24 60.8761 6.136C61.2227 6.032 61.6084 5.98 62.0331 5.98C62.3797 5.98 62.7567 5.99733 63.1641 6.032C63.5714 6.058 63.9614 6.10133 64.3341 6.162V6.773H62.3061C61.8641 6.773 61.4914 6.84667 61.1881 6.994C60.8847 7.14133 60.6551 7.41867 60.4991 7.826C60.3431 8.22467 60.2651 8.80533 60.2651 9.568C60.2651 10.3047 60.3474 10.868 60.5121 11.258C60.6767 11.648 60.9107 11.9167 61.2141 12.064C61.5174 12.2027 61.8857 12.272 62.3191 12.272H64.4381V12.87C64.2387 12.9047 64.0047 12.9393 63.7361 12.974C63.4761 13.0087 63.1987 13.0347 62.9041 13.052C62.6094 13.0693 62.3104 13.078 62.0071 13.078Z" fill="white"/>
<path d="M13.8333 8.33333H13.1667V5.66667H13.8333V3.66667H15.1667V5.66667H15.8333V8.33333H15.1667V13C15.1667 13.5304 14.956 14.0391 14.5809 14.4142C14.2058 14.7893 13.6971 15 13.1667 15C12.6362 15 12.1275 14.7893 11.7525 14.4142C11.3774 14.0391 11.1667 13.5304 11.1667 13V10.3333H9.83334V13.6667H10.5V15H1.83334V13.6667H2.50001V3.66667C2.50001 3.48986 2.57025 3.32029 2.69527 3.19526C2.8203 3.07024 2.98987 3 3.16668 3H9.16668C9.34349 3 9.51306 3.07024 9.63808 3.19526C9.76311 3.32029 9.83334 3.48986 9.83334 3.66667V9H11.1667C11.5203 9 11.8594 9.14048 12.1095 9.39052C12.3595 9.64057 12.5 9.97971 12.5 10.3333V13C12.5 13.1768 12.5702 13.3464 12.6953 13.4714C12.8203 13.5964 12.9899 13.6667 13.1667 13.6667C13.3435 13.6667 13.5131 13.5964 13.6381 13.4714C13.7631 13.3464 13.8333 13.1768 13.8333 13V8.33333ZM8.50001 13.6667V4.33333H3.83334V13.6667H8.50001ZM6.50001 8.33333H8.50001L5.83334 12.3333V9.66667H3.83334L6.50001 5.66667V8.33333Z" fill="white"/>
</svg>
